<svg width="22" height="22" viewBox="0 0 22 22" fill="none" xmlns="http://www.w3.org/2000/svg">
<path d="M21.3595 10.298L10.3965 0.783091C10.3124 0.710547 10.205 0.669922 10.0918 0.669922H7.52377C7.30903 0.669922 7.21037 0.936886 7.37287 1.07617L17.5349 9.8976H0.553676C0.425997 9.8976 0.321533 10.0021 0.321533 10.1297V11.8708C0.321533 11.9985 0.425997 12.103 0.553676 12.103H17.532L7.36997 20.9244C7.20747 21.0666 7.30613 21.3306 7.52086 21.3306H10.176C10.2311 21.3306 10.2863 21.3103 10.3269 21.2726L21.3595 11.7025C21.4599 11.6152 21.5405 11.5073 21.5957 11.3861C21.6509 11.265 21.6794 11.1334 21.6794 11.0003C21.6794 10.8672 21.6509 10.7356 21.5957 10.6144C21.5405 10.4933 21.4599 10.3854 21.3595 10.298Z" fill="#475467"/>
</svg>